
<svg version="1.1" id="Layer_1" xmlns="http://www.w3.org/2000/svg" xmlns:xlink="http://www.w3.org/1999/xlink" x="0px" y="0px"
	 viewBox="0 0 1223.1 163.3" style="enable-background:new 0 0 1223.1 163.3;" xml:space="preserve">
<style type="text/css">
</style>
<g>
	<path class="st0" d="M46.8,73.1l-9.5,9.6l-5.7-5.8V52.5l7.6-7.6l7.6,7.6V73.1z M31.7,118.4l7.6,7.6l7.6-7.6V97.8l-9.5-9.5L31.7,94
		V118.4z M96.2,34.4L81.1,49.6H49.7L42.2,42l7.6-7.5H96.2z M49.7,136.4l-7.6-7.6l7.6-7.6h31.3l15.2,15.2H49.7z"/>
	<path class="st0" d="M113.3,76.8V37.3l15.2,14.9V73l-9.5,9.7L113.3,76.8z M128.4,97.8v23.5l-15.2,15.2V94l5.7-5.7L128.4,97.8z
		 M167.5,42l-7.6,7.6h-28.6l-15.2-15.2h43.7L167.5,42z M161.8,77.9l7.6,7.6l-7.6,7.6h-32.3l-7.6-7.6l7.6-7.6H161.8z M135.3,107.3
		V96.5l10.9,0l29.1,29.1l0.1,10.8h-10.9L135.3,107.3z M177.8,76.8l-5.7,5.8l-9.5-9.6V52.5l7.6-7.6l7.6,7.6V76.8z"/>
	<path class="st0" d="M194.8,34.4L210,49.7v23.3l-9.5,9.6l-5.7-5.8V34.4z M241.5,136.4l7.6-7.6l-7.6-7.6h-33.4l-7.6,7.6l7.6,7.6
		H241.5z M211,77.9l-7.6,7.6L211,93h32.3l7.6-7.6l-7.6-7.6H211z M259.4,34.4l-15.2,15.3V73l9.5,9.6l5.7-5.8V34.4z M259.4,94
		l-5.7-5.7l-9.5,9.5v20.5l7.6,7.6l7.6-7.6V94z"/>
	<path class="st0" d="M276.4,76.8V37.3l15.2,14.9V73l-9.5,9.7L276.4,76.8z M291.6,97.8v23.5l-15.2,15.2V94l5.7-5.7L291.6,97.8z
		 M330.6,42l-7.6,7.6h-28.6l-15.2-15.2H323L330.6,42z M324.9,77.9l7.6,7.6l-7.6,7.6h-32.3l-7.6-7.6l7.6-7.6H324.9z M341,76.8
		l-5.7,5.8l-9.5-9.6V52.5l7.6-7.6l7.6,7.6V76.8z"/>
	<path class="st0" d="M426,42l-7.7,7.6h-56.1l-7.6-7.6l7.6-7.5h56.1L426,42z M397.9,76.8l-5.7,5.9l-9.5-9.7V61.3l7.6-7.6l7.6,7.6
		V76.8z M397.9,129.4l-7.6,7.6l-7.6-7.6V97.8l9.5-9.5l5.7,5.7V129.4z"/>
	<path class="st0" d="M454.7,73.1l-9.5,9.6l-5.7-5.8V52.5l7.6-7.6l7.6,7.6V73.1z M439.6,118.4l7.6,7.6l7.6-7.6V97.8l-9.5-9.5
		l-5.7,5.7V118.4z M493.8,42l-7.6,7.6h-28.6l-7.6-7.6l7.6-7.5h28.6L493.8,42z M457.6,136.4l-7.6-7.6l7.6-7.6h28.6l7.6,7.6l-7.6,7.6
		H457.6z M504.1,76.8l-5.7,5.8l-9.5-9.6V52.5l7.6-7.6l7.6,7.6V76.8z M504.1,118.4l-7.6,7.6l-7.6-7.6V97.8l9.5-9.5l5.7,5.7V118.4z"/>
	<path class="st0" d="M559,76.8V37.3l15.2,14.9V73l-9.5,9.7L559,76.8z M574.2,97.8v23.5L559,136.5V94l5.7-5.7L574.2,97.8z
		 M620.8,34.4l-15.2,15.2h-28.6l-15.2-15.2H620.8z M607.5,77.9l7.6,7.6l-7.6,7.6h-32.3l-7.6-7.6l7.6-7.6H607.5z M608.4,73V52.4
		l15.2-14.9v39.4l-5.7,5.8L608.4,73z M623.6,94v42.4l-15.2-15.2V97.8l9.5-9.5L623.6,94z"/>
	<path class="st0" d="M640.6,76.8V34.5l15.2,15.2L655.8,73l-9.5,9.6L640.6,76.8z M655.8,97.8v23.5l-15.2,15.2V94l5.7-5.7L655.8,97.8
		z M644.7,34.4l22.1,0l19.7,20.8l-0.1,11h-10.8L644.7,34.4z M690,73.1V49.7l15.2-15.3v42.4l-5.7,5.8L690,73.1z M705.1,94v42.4
		L690,121.3V97.8l9.5-9.5L705.1,94z"/>
	<path class="st0" d="M722.2,76.8V37.3l15.2,14.9V73l-9.5,9.7L722.2,76.8z M737.3,97.8v23.5l-15.2,15.2V94l5.7-5.7L737.3,97.8z
		 M784,34.4l-15.2,15.2h-28.6l-15.2-15.2H784z M770.7,77.9l7.6,7.6l-7.6,7.6h-32.3l-7.6-7.6l7.6-7.6H770.7z M771.6,73V52.4
		l15.2-14.9v39.4l-5.7,5.8L771.6,73z M786.7,94v42.4l-15.2-15.2V97.8l9.5-9.5L786.7,94z"/>
	<path class="st0" d="M803.8,76.8V34.4l15.2,15.3V73l-9.5,9.6L803.8,76.8z M818.9,97.8v20.6l-15.2,15.1V94l5.7-5.7L818.9,97.8z
		 M868.3,136.4h-61.6l15.2-15.2h31.3L868.3,136.4z"/>
	<path class="st0" d="M885.3,34.4l15.2,15.3v23.3l-9.5,9.6l-5.7-5.8V34.4z M932,136.4l7.6-7.6l-7.6-7.6h-33.4l-7.6,7.6l7.6,7.6H932z
		 M901.5,77.9l-7.6,7.6l7.6,7.6h32.3l7.6-7.6l-7.6-7.6H901.5z M949.9,34.4l-15.2,15.3V73l9.5,9.6l5.7-5.8V34.4z M949.9,94l-5.7-5.7
		l-9.5,9.5v20.5l7.6,7.6l7.6-7.6V94z"/>
	<path class="st0" d="M982.1,73.1l-9.5,9.6l-5.7-5.8V52.5l7.6-7.6l7.6,7.6V73.1z M974.5,136.4l-7.6-7.6l7.6-7.6h39l7.6,7.6l-7.6,7.6
		H974.5z M1015.4,77.9l7.6,7.6l-7.6,7.6h-32.3l-7.6-7.6l7.6-7.6H1015.4z M1031.5,42l-7.6,7.6H985l-7.6-7.6l7.6-7.5h38.9L1031.5,42z
		 M1031.5,118.4l-7.6,7.6l-7.6-7.6V97.8l9.5-9.5l5.7,5.7V118.4z"/>
	<path class="st0" d="M1048.5,76.8V37.3l15.2,14.9V73l-9.5,9.7L1048.5,76.8z M1063.6,97.8v20.6l-15.2,15.1V94l5.7-5.7L1063.6,97.8z
		 M1113,34.4l-15.2,15.2h-31.3l-15.2-15.2H1113z M1113,136.4h-61.6l15.2-15.2h31.3L1113,136.4z M1097,77.9l7.6,7.6L1097,93h-32.3
		l-7.6-7.6l7.6-7.6H1097z"/>
	<path class="st0" d="M1130.1,76.8V37.3l15.2,14.9V73l-9.5,9.7L1130.1,76.8z M1145.2,97.8v23.5l-15.2,15.2V94l5.7-5.7L1145.2,97.8z
		 M1184.3,42l-7.6,7.6h-28.6L1133,34.4h43.7L1184.3,42z M1178.6,77.9l7.6,7.6l-7.6,7.6h-32.3l-7.6-7.6l7.6-7.6H1178.6z
		 M1152.1,107.3V96.5l10.9,0l29.1,29.1l0.1,10.8h-10.9L1152.1,107.3z M1194.6,76.8l-5.7,5.8l-9.5-9.6V52.5l7.6-7.6l7.6,7.6V76.8z"/>
</g>
</svg>
